<mxfile host="app.diagrams.net" modified="2024-06-07T10:00:29.931Z" agent="Mozilla/5.0 (Windows NT 10.0; Win64; x64) AppleWebKit/537.36 (KHTML, like Gecko) Chrome/124.0.0.0 Safari/537.36" etag="9kBFdveQ8TJzVnRglSIh" version="24.5.1" type="device">
  <diagram id="C5RBs43oDa-KdzZeNtuy" name="Page-1">
    <mxGraphModel dx="1502" dy="623" grid="1" gridSize="10" guides="1" tooltips="1" connect="1" arrows="1" fold="1" page="1" pageScale="1" pageWidth="827" pageHeight="1169" math="0" shadow="0">
      <root>
        <mxCell id="WIyWlLk6GJQsqaUBKTNV-0" />
        <mxCell id="WIyWlLk6GJQsqaUBKTNV-1" parent="WIyWlLk6GJQsqaUBKTNV-0" />
        <mxCell id="WIyhrB85zjpp1Ks5ANnU-7" style="rounded=0;orthogonalLoop=1;jettySize=auto;html=1;exitX=0.5;exitY=1;exitDx=0;exitDy=0;entryX=0.5;entryY=0;entryDx=0;entryDy=0;endArrow=none;endFill=0;" parent="WIyWlLk6GJQsqaUBKTNV-1" source="WIyhrB85zjpp1Ks5ANnU-0" target="WIyhrB85zjpp1Ks5ANnU-13" edge="1">
          <mxGeometry relative="1" as="geometry">
            <mxPoint x="212.5" y="390" as="targetPoint" />
            <mxPoint x="257.5" y="360" as="sourcePoint" />
          </mxGeometry>
        </mxCell>
        <mxCell id="WIyhrB85zjpp1Ks5ANnU-0" value="C(6,3)" style="rounded=0;whiteSpace=wrap;html=1;" parent="WIyWlLk6GJQsqaUBKTNV-1" vertex="1">
          <mxGeometry x="280" y="340" width="50" height="20" as="geometry" />
        </mxCell>
        <mxCell id="WIyhrB85zjpp1Ks5ANnU-11" style="rounded=0;orthogonalLoop=1;jettySize=auto;html=1;exitX=0.75;exitY=1;exitDx=0;exitDy=0;entryX=0.5;entryY=0;entryDx=0;entryDy=0;strokeColor=default;endArrow=none;endFill=0;" parent="WIyWlLk6GJQsqaUBKTNV-1" source="WIyhrB85zjpp1Ks5ANnU-0" target="WIyhrB85zjpp1Ks5ANnU-35" edge="1">
          <mxGeometry relative="1" as="geometry">
            <mxPoint x="359.14999999999986" y="389.31999999999994" as="targetPoint" />
          </mxGeometry>
        </mxCell>
        <mxCell id="WIyhrB85zjpp1Ks5ANnU-12" style="rounded=0;orthogonalLoop=1;jettySize=auto;html=1;exitX=0.25;exitY=1;exitDx=0;exitDy=0;entryX=0.75;entryY=0;entryDx=0;entryDy=0;endArrow=none;endFill=0;" parent="WIyWlLk6GJQsqaUBKTNV-1" source="WIyhrB85zjpp1Ks5ANnU-13" target="WIyhrB85zjpp1Ks5ANnU-14" edge="1">
          <mxGeometry relative="1" as="geometry" />
        </mxCell>
        <mxCell id="WIyhrB85zjpp1Ks5ANnU-13" value="C(5,2)" style="rounded=0;whiteSpace=wrap;html=1;" parent="WIyWlLk6GJQsqaUBKTNV-1" vertex="1">
          <mxGeometry x="171.25" y="380" width="50" height="20" as="geometry" />
        </mxCell>
        <mxCell id="WIyhrB85zjpp1Ks5ANnU-40" style="rounded=0;orthogonalLoop=1;jettySize=auto;html=1;exitX=0.25;exitY=1;exitDx=0;exitDy=0;entryX=0.5;entryY=0;entryDx=0;entryDy=0;endArrow=none;endFill=0;" parent="WIyWlLk6GJQsqaUBKTNV-1" source="WIyhrB85zjpp1Ks5ANnU-14" target="WIyhrB85zjpp1Ks5ANnU-18" edge="1">
          <mxGeometry relative="1" as="geometry" />
        </mxCell>
        <mxCell id="WIyhrB85zjpp1Ks5ANnU-46" style="rounded=0;orthogonalLoop=1;jettySize=auto;html=1;exitX=0.75;exitY=1;exitDx=0;exitDy=0;entryX=0.5;entryY=0;entryDx=0;entryDy=0;endArrow=none;endFill=0;" parent="WIyWlLk6GJQsqaUBKTNV-1" source="WIyhrB85zjpp1Ks5ANnU-14" target="WIyhrB85zjpp1Ks5ANnU-42" edge="1">
          <mxGeometry relative="1" as="geometry" />
        </mxCell>
        <mxCell id="WIyhrB85zjpp1Ks5ANnU-14" value="C(4,1)" style="rounded=0;whiteSpace=wrap;html=1;" parent="WIyWlLk6GJQsqaUBKTNV-1" vertex="1">
          <mxGeometry x="101.25" y="420" width="50" height="20" as="geometry" />
        </mxCell>
        <mxCell id="WIyhrB85zjpp1Ks5ANnU-15" value="C(4,2)" style="rounded=0;whiteSpace=wrap;html=1;" parent="WIyWlLk6GJQsqaUBKTNV-1" vertex="1">
          <mxGeometry x="230" y="420" width="50" height="20" as="geometry" />
        </mxCell>
        <mxCell id="WIyhrB85zjpp1Ks5ANnU-16" style="rounded=0;orthogonalLoop=1;jettySize=auto;html=1;exitX=0.75;exitY=1;exitDx=0;exitDy=0;entryX=0.383;entryY=-0.034;entryDx=0;entryDy=0;entryPerimeter=0;strokeColor=default;endArrow=none;endFill=0;" parent="WIyWlLk6GJQsqaUBKTNV-1" source="WIyhrB85zjpp1Ks5ANnU-13" target="WIyhrB85zjpp1Ks5ANnU-15" edge="1">
          <mxGeometry relative="1" as="geometry" />
        </mxCell>
        <mxCell id="WIyhrB85zjpp1Ks5ANnU-18" value="C(3,0)" style="rounded=0;whiteSpace=wrap;html=1;" parent="WIyWlLk6GJQsqaUBKTNV-1" vertex="1">
          <mxGeometry x="31.25" y="460" width="50" height="20" as="geometry" />
        </mxCell>
        <mxCell id="WIyhrB85zjpp1Ks5ANnU-34" style="rounded=0;orthogonalLoop=1;jettySize=auto;html=1;exitX=0.25;exitY=1;exitDx=0;exitDy=0;entryX=0.75;entryY=0;entryDx=0;entryDy=0;endArrow=none;endFill=0;" parent="WIyWlLk6GJQsqaUBKTNV-1" source="WIyhrB85zjpp1Ks5ANnU-35" target="WIyhrB85zjpp1Ks5ANnU-36" edge="1">
          <mxGeometry relative="1" as="geometry" />
        </mxCell>
        <mxCell id="WIyhrB85zjpp1Ks5ANnU-35" value="C(5,3)" style="rounded=0;whiteSpace=wrap;html=1;" parent="WIyWlLk6GJQsqaUBKTNV-1" vertex="1">
          <mxGeometry x="400" y="380" width="50" height="20" as="geometry" />
        </mxCell>
        <mxCell id="WIyhrB85zjpp1Ks5ANnU-36" value="C(4,2)" style="rounded=0;whiteSpace=wrap;html=1;" parent="WIyWlLk6GJQsqaUBKTNV-1" vertex="1">
          <mxGeometry x="330" y="420" width="50" height="20" as="geometry" />
        </mxCell>
        <mxCell id="WIyhrB85zjpp1Ks5ANnU-37" value="C(4,3)" style="rounded=0;whiteSpace=wrap;html=1;" parent="WIyWlLk6GJQsqaUBKTNV-1" vertex="1">
          <mxGeometry x="460" y="420" width="50" height="20" as="geometry" />
        </mxCell>
        <mxCell id="WIyhrB85zjpp1Ks5ANnU-38" style="rounded=0;orthogonalLoop=1;jettySize=auto;html=1;exitX=0.75;exitY=1;exitDx=0;exitDy=0;strokeColor=default;endArrow=none;endFill=0;entryX=0.5;entryY=0;entryDx=0;entryDy=0;" parent="WIyWlLk6GJQsqaUBKTNV-1" source="WIyhrB85zjpp1Ks5ANnU-35" target="WIyhrB85zjpp1Ks5ANnU-37" edge="1">
          <mxGeometry relative="1" as="geometry">
            <mxPoint x="469" y="429" as="targetPoint" />
          </mxGeometry>
        </mxCell>
        <mxCell id="WIyhrB85zjpp1Ks5ANnU-41" style="rounded=0;orthogonalLoop=1;jettySize=auto;html=1;exitX=0.25;exitY=1;exitDx=0;exitDy=0;entryX=0.75;entryY=0;entryDx=0;entryDy=0;endArrow=none;endFill=0;" parent="WIyWlLk6GJQsqaUBKTNV-1" source="WIyhrB85zjpp1Ks5ANnU-42" target="WIyhrB85zjpp1Ks5ANnU-43" edge="1">
          <mxGeometry relative="1" as="geometry" />
        </mxCell>
        <mxCell id="WIyhrB85zjpp1Ks5ANnU-42" value="C(3,1)" style="rounded=0;whiteSpace=wrap;html=1;" parent="WIyWlLk6GJQsqaUBKTNV-1" vertex="1">
          <mxGeometry x="151.25" y="465" width="50" height="20" as="geometry" />
        </mxCell>
        <mxCell id="WIyhrB85zjpp1Ks5ANnU-43" value="C(2,0)" style="rounded=0;whiteSpace=wrap;html=1;" parent="WIyWlLk6GJQsqaUBKTNV-1" vertex="1">
          <mxGeometry x="81.25" y="510" width="50" height="20" as="geometry" />
        </mxCell>
        <mxCell id="WIyhrB85zjpp1Ks5ANnU-48" style="rounded=0;orthogonalLoop=1;jettySize=auto;html=1;exitX=0.25;exitY=1;exitDx=0;exitDy=0;entryX=0.5;entryY=0;entryDx=0;entryDy=0;endArrow=none;endFill=0;" parent="WIyWlLk6GJQsqaUBKTNV-1" source="WIyhrB85zjpp1Ks5ANnU-44" target="WIyhrB85zjpp1Ks5ANnU-47" edge="1">
          <mxGeometry relative="1" as="geometry" />
        </mxCell>
        <mxCell id="WIyhrB85zjpp1Ks5ANnU-44" value="C(2,1)" style="rounded=0;whiteSpace=wrap;html=1;" parent="WIyWlLk6GJQsqaUBKTNV-1" vertex="1">
          <mxGeometry x="201.25" y="510" width="50" height="20" as="geometry" />
        </mxCell>
        <mxCell id="WIyhrB85zjpp1Ks5ANnU-45" style="rounded=0;orthogonalLoop=1;jettySize=auto;html=1;exitX=0.75;exitY=1;exitDx=0;exitDy=0;entryX=0.383;entryY=-0.034;entryDx=0;entryDy=0;entryPerimeter=0;strokeColor=default;endArrow=none;endFill=0;" parent="WIyWlLk6GJQsqaUBKTNV-1" source="WIyhrB85zjpp1Ks5ANnU-42" target="WIyhrB85zjpp1Ks5ANnU-44" edge="1">
          <mxGeometry relative="1" as="geometry" />
        </mxCell>
        <mxCell id="WIyhrB85zjpp1Ks5ANnU-47" value="C(1,0)" style="rounded=0;whiteSpace=wrap;html=1;" parent="WIyWlLk6GJQsqaUBKTNV-1" vertex="1">
          <mxGeometry x="151.25" y="550" width="50" height="20" as="geometry" />
        </mxCell>
        <mxCell id="WIyhrB85zjpp1Ks5ANnU-49" style="rounded=0;orthogonalLoop=1;jettySize=auto;html=1;exitX=0.75;exitY=1;exitDx=0;exitDy=0;entryX=0.382;entryY=0.065;entryDx=0;entryDy=0;endArrow=none;endFill=0;entryPerimeter=0;" parent="WIyWlLk6GJQsqaUBKTNV-1" source="WIyhrB85zjpp1Ks5ANnU-44" target="WIyhrB85zjpp1Ks5ANnU-50" edge="1">
          <mxGeometry relative="1" as="geometry">
            <mxPoint x="314.25" y="535" as="sourcePoint" />
            <mxPoint x="276.25" y="570" as="targetPoint" />
          </mxGeometry>
        </mxCell>
        <mxCell id="WIyhrB85zjpp1Ks5ANnU-50" value="C(1, 1)" style="rounded=0;whiteSpace=wrap;html=1;" parent="WIyWlLk6GJQsqaUBKTNV-1" vertex="1">
          <mxGeometry x="266.25" y="550" width="50" height="20" as="geometry" />
        </mxCell>
        <mxCell id="klWzojOkvpkcCCD81wL9-0" style="rounded=0;orthogonalLoop=1;jettySize=auto;html=1;entryX=1;entryY=0;entryDx=0;entryDy=0;edgeStyle=orthogonalEdgeStyle;curved=1;" parent="WIyWlLk6GJQsqaUBKTNV-1" source="8_BT1IVtZ3b_kQd1cGID-0" target="8_BT1IVtZ3b_kQd1cGID-2" edge="1">
          <mxGeometry relative="1" as="geometry" />
        </mxCell>
        <mxCell id="8_BT1IVtZ3b_kQd1cGID-0" value="&lt;font style=&quot;font-size: 16px;&quot;&gt;Repeat&lt;/font&gt;" style="ellipse;whiteSpace=wrap;html=1;strokeWidth=2;" parent="WIyWlLk6GJQsqaUBKTNV-1" vertex="1">
          <mxGeometry x="450" y="330" width="90" height="40" as="geometry" />
        </mxCell>
        <mxCell id="8_BT1IVtZ3b_kQd1cGID-2" value="" style="ellipse;whiteSpace=wrap;html=1;fillColor=none;strokeColor=#FF3333;strokeWidth=2;" parent="WIyWlLk6GJQsqaUBKTNV-1" vertex="1">
          <mxGeometry x="216.25" y="405" width="77.5" height="50" as="geometry" />
        </mxCell>
        <mxCell id="8_BT1IVtZ3b_kQd1cGID-3" value="" style="ellipse;whiteSpace=wrap;html=1;fillColor=none;strokeColor=#FF3333;strokeWidth=2;" parent="WIyWlLk6GJQsqaUBKTNV-1" vertex="1">
          <mxGeometry x="316.25" y="405" width="77.5" height="50" as="geometry" />
        </mxCell>
        <mxCell id="8_BT1IVtZ3b_kQd1cGID-7" style="edgeStyle=orthogonalEdgeStyle;rounded=0;orthogonalLoop=1;jettySize=auto;html=1;entryX=0.617;entryY=0.032;entryDx=0;entryDy=0;entryPerimeter=0;curved=1;" parent="WIyWlLk6GJQsqaUBKTNV-1" source="8_BT1IVtZ3b_kQd1cGID-0" target="8_BT1IVtZ3b_kQd1cGID-3" edge="1">
          <mxGeometry relative="1" as="geometry" />
        </mxCell>
        <mxCell id="8_BT1IVtZ3b_kQd1cGID-10" value="" style="curved=1;endArrow=classic;html=1;rounded=0;strokeWidth=7;" parent="WIyWlLk6GJQsqaUBKTNV-1" edge="1">
          <mxGeometry width="50" height="50" relative="1" as="geometry">
            <mxPoint x="290" y="325" as="sourcePoint" />
            <mxPoint x="220" y="355" as="targetPoint" />
            <Array as="points">
              <mxPoint x="270" y="305" />
              <mxPoint x="240" y="315" />
              <mxPoint x="220" y="355" />
            </Array>
          </mxGeometry>
        </mxCell>
        <mxCell id="8_BT1IVtZ3b_kQd1cGID-11" value="&lt;font color=&quot;#3333ff&quot; face=&quot;Cambria Math&quot;&gt;Phân tích đến&amp;nbsp;&lt;/font&gt;&lt;div&gt;&lt;font color=&quot;#3333ff&quot; face=&quot;Wup8K-i8UrOPHs9fDFAQ&quot;&gt;bài toán cơ sở&lt;/font&gt;&lt;/div&gt;" style="text;html=1;align=center;verticalAlign=middle;resizable=0;points=[];autosize=1;strokeColor=none;fillColor=none;" parent="WIyWlLk6GJQsqaUBKTNV-1" vertex="1">
          <mxGeometry x="151.25" y="270" width="90" height="40" as="geometry" />
        </mxCell>
        <mxCell id="8_BT1IVtZ3b_kQd1cGID-14" value="" style="curved=1;endArrow=classic;html=1;rounded=0;strokeWidth=7;" parent="WIyWlLk6GJQsqaUBKTNV-1" edge="1">
          <mxGeometry width="50" height="50" relative="1" as="geometry">
            <mxPoint x="301.25" y="540" as="sourcePoint" />
            <mxPoint x="251.25" y="500" as="targetPoint" />
            <Array as="points">
              <mxPoint x="311.25" y="510" />
            </Array>
          </mxGeometry>
        </mxCell>
        <mxCell id="8_BT1IVtZ3b_kQd1cGID-15" value="&lt;font color=&quot;#3333ff&quot; face=&quot;Cambria Math&quot;&gt;Thế ngược&amp;nbsp;&lt;span style=&quot;background-color: initial;&quot;&gt;từ&amp;nbsp;&lt;/span&gt;&lt;/font&gt;&lt;div&gt;&lt;span style=&quot;background-color: initial;&quot;&gt;&lt;font color=&quot;#3333ff&quot; face=&quot;X6oOrgG6Wic08Ck4KeUh&quot;&gt;bài toán cơ sở&lt;/font&gt;&lt;/span&gt;&lt;/div&gt;" style="text;html=1;align=center;verticalAlign=middle;resizable=0;points=[];autosize=1;strokeColor=none;fillColor=none;" parent="WIyWlLk6GJQsqaUBKTNV-1" vertex="1">
          <mxGeometry x="324" y="510" width="90" height="40" as="geometry" />
        </mxCell>
        <mxCell id="8_BT1IVtZ3b_kQd1cGID-16" value="&lt;font color=&quot;#3333ff&quot; face=&quot;Cambria Math&quot;&gt;Vẫn phân tích&lt;/font&gt;&lt;div&gt;&lt;font color=&quot;#3333ff&quot; face=&quot;a93fB6Gu_Vs1kukQMlRY&quot;&gt;và giải lại&lt;/font&gt;&lt;/div&gt;&lt;div&gt;&lt;font color=&quot;#3333ff&quot; face=&quot;a93fB6Gu_Vs1kukQMlRY&quot;&gt;dù đã giải&lt;/font&gt;&lt;/div&gt;&lt;div&gt;&lt;font color=&quot;#3333ff&quot; face=&quot;a93fB6Gu_Vs1kukQMlRY&quot;&gt;trước đó rồi&lt;/font&gt;&lt;/div&gt;" style="text;html=1;align=center;verticalAlign=middle;resizable=0;points=[];autosize=1;strokeColor=none;fillColor=none;" parent="WIyWlLk6GJQsqaUBKTNV-1" vertex="1">
          <mxGeometry x="530" y="300" width="90" height="70" as="geometry" />
        </mxCell>
        <mxCell id="8_BT1IVtZ3b_kQd1cGID-17" value="&lt;font face=&quot;Cambria Math&quot;&gt;Phân hoạch và giải các bài toán con 1 cách độc lập&amp;nbsp;&lt;/font&gt;&lt;div&gt;&lt;font face=&quot;Cambria Math&quot;&gt;(Partition the problem into independent subproblems)&lt;/font&gt;&lt;/div&gt;" style="text;html=1;align=center;verticalAlign=middle;resizable=0;points=[];autosize=1;strokeColor=none;fillColor=none;" parent="WIyWlLk6GJQsqaUBKTNV-1" vertex="1">
          <mxGeometry x="101.25" y="585" width="290" height="40" as="geometry" />
        </mxCell>
      </root>
    </mxGraphModel>
  </diagram>
</mxfile>
